<svg xmlns="http://www.w3.org/2000/svg" version="1.1" xmlns:xlink="http://www.w3.org/1999/xlink" xmlns:svgjs="http://svgjs.dev/svgjs" width="1440" height="560" preserveAspectRatio="none" viewBox="0 0 1440 560"><g mask="url(&quot;#SvgjsMask1098&quot;)" fill="none"><rect width="1440" height="560" x="0" y="0" fill="rgba(255, 255, 255, 1)"></rect><path d="M 0,393 C 72,346.4 216,179.6 360,160 C 504,140.4 576,281 720,295 C 864,309 936,194.6 1080,230 C 1224,265.4 1368,423.6 1440,472L1440 560L0 560z" fill="rgba(112, 112, 112, 1)"></path><path d="M 0,268 C 96,300.4 288,439.4 480,430 C 672,420.6 768,241.2 960,221 C 1152,200.8 1344,307.4 1440,329L1440 560L0 560z" fill="rgba(0, 0, 0, 1)"></path></g><defs><mask id="SvgjsMask1098"><rect width="1440" height="560" fill="#ffffff"></rect></mask></defs></svg>