<svg xmlns="http://www.w3.org/2000/svg" version="1.1" xmlns:xlink="http://www.w3.org/1999/xlink" xmlns:svgjs="http://svgjs.dev/svgjs" width="1440" height="250" preserveAspectRatio="none" viewBox="0 0 1440 250"><g mask="url(&quot;#SvgjsMask1065&quot;)" fill="none"><rect width="1440" height="250" x="0" y="0" fill="rgba(255, 255, 255, 1)"></rect><path d="M 0,64 C 96,77.8 288,130.8 480,133 C 672,135.2 768,52.2 960,75 C 1152,97.8 1344,212.6 1440,247L1440 250L0 250z" fill="rgba(231, 231, 231, 1)"></path><path d="M 0,48 C 72,63.6 216,135 360,126 C 504,117 576,-1 720,3 C 864,7 936,139 1080,146 C 1224,153 1368,59.6 1440,38L1440 250L0 250z" fill="rgba(112, 112, 112, 1)"></path><path d="M 0,230 C 96,195.6 288,65.4 480,58 C 672,50.6 768,193.6 960,193 C 1152,192.4 1344,82.6 1440,55L1440 250L0 250z" fill="rgba(0, 0, 0, 1)"></path></g><defs><mask id="SvgjsMask1065"><rect width="1440" height="250" fill="#ffffff"></rect></mask></defs></svg>